<?xml version="1.0" standalone="no"?><!DOCTYPE svg PUBLIC "-//W3C//DTD SVG 1.1//EN" "http://www.w3.org/Graphics/SVG/1.1/DTD/svg11.dtd"><svg t="1682426514463" class="icon" viewBox="0 0 1024 1024" version="1.1" xmlns="http://www.w3.org/2000/svg" p-id="12305" xmlns:xlink="http://www.w3.org/1999/xlink" width="200" height="200"><path d="M849.170732 0c97.404878 0 174.829268 77.42439 174.829268 174.829268v674.341464c0 97.404878-77.42439 174.829268-174.829268 174.829268H174.829268c-97.404878 0-174.829268-77.42439-174.829268-174.829268V174.829268c0-97.404878 77.42439-174.829268 174.829268-174.829268h674.341464zM474.536585 252.253659c-134.868293 0-244.760976 107.395122-244.760975 244.760975 0 134.868293 107.395122 244.760976 244.760975 244.760976 49.95122 0 97.404878-14.985366 134.868293-39.960976l79.921951 79.921951c17.482927 17.482927 47.453659 17.482927 64.936586 0 17.482927-22.478049 17.482927-49.95122 0-67.434146L674.341463 634.380488c27.473171-39.960976 42.458537-87.414634 42.458537-137.365854 2.497561-134.868293-104.897561-244.760976-242.263415-244.760975z m0 74.926829a167.336585 167.336585 0 0 1 0 334.673171c-94.907317 2.497561-167.336585-74.926829-167.336585-167.336586s74.926829-167.336585 167.336585-167.336585z" fill="#639EF6" p-id="12306"></path></svg>